<?xml version="1.0" encoding="UTF-8"?>
<svg xmlns="http://www.w3.org/2000/svg" width="240" height="240" viewBox="0 0 240 240">
  <!-- Subtle WhatsApp-like doodle pattern: light strokes on transparent bg -->
  <defs>
    <style>
      .line { stroke: #d9e3ee; stroke-opacity: 0.55; stroke-width: 1.2; fill: none; }
      .dot { fill: #d9e3ee; fill-opacity: 0.5; }
    </style>
  </defs>

  <!-- Curvy lines -->
  <path class="line" d="M10,30 C40,10 60,50 90,30 C120,10 140,50 170,30 C200,10 220,40 230,30"/>
  <path class="line" d="M5,120 C25,100 45,140 70,120 C95,100 115,140 140,120 C165,100 190,140 215,120"/>
  <path class="line" d="M15,210 C45,190 65,225 95,205 C125,185 155,225 185,205 C205,193 225,215 235,205"/>

  <!-- Waves -->
  <path class="line" d="M0,70 q15,-10 30,0 t30,0 t30,0 t30,0 t30,0 t30,0"/>
  <path class="line" d="M0,160 q12,-8 24,0 t24,0 t24,0 t24,0 t24,0 t24,0 t24,0 t24,0"/>

  <!-- Circles and arcs -->
  <circle class="line" cx="40" cy="40" r="10"/>
  <circle class="line" cx="200" cy="40" r="8"/>
  <circle class="line" cx="120" cy="120" r="12"/>
  <path class="line" d="M190,180 a12,12 0 1,0 20,0"/>
  <path class="line" d="M50,185 a10,10 0 1,1 16,0"/>

  <!-- Crosses / plus signs -->
  <g stroke="#d9e3ee" stroke-opacity="0.5" stroke-width="1.2">
    <path d="M85 60 l8 8 M93 60 l-8 8"/>
    <path d="M150 95 l0 10 M145 100 l10 0"/>
    <path d="M30 135 l8 8 M38 135 l-8 8"/>
    <path d="M205 105 l0 10 M200 110 l10 0"/>
  </g>

  <!-- Dots -->
  <circle class="dot" cx="20" cy="20" r="1.8"/>
  <circle class="dot" cx="220" cy="22" r="1.8"/>
  <circle class="dot" cx="30" cy="100" r="1.6"/>
  <circle class="dot" cx="210" cy="130" r="1.6"/>
  <circle class="dot" cx="60" cy="200" r="1.6"/>
  <circle class="dot" cx="180" cy="210" r="1.6"/>

  <!-- Hearts-like doodles -->
  <path class="line" d="M120,50 c-5,-6 -15,-4 -16,4 c-1,8 12,12 16,20 c4,-8 17,-12 16,-20 c-1,-8 -11,-10 -16,-4z"/>
  <path class="line" d="M60,160 c-4,-5 -12,-3 -13,3 c-1,6 9,9 13,15 c3,-6 14,-9 13,-15 c-1,-6 -9,-8 -13,-3z"/>

  <!-- Ensure seamless edges by mirroring a few elements near borders -->
  <path class="line" d="M0,0 C20,15 40,5 60,15"/>
  <path class="line" d="M180,240 C200,225 220,235 240,225"/>
</svg>


